<svg xmlns="http://www.w3.org/2000/svg" enable-background="new 0 0 313.035 214.08" viewBox="0 0 313.035 214.08" id="receptionist-working-on-her-desk-with-laptop"><path fill="#cce9ff" d="M214.609 55.14c1.54 2.85-.609 6.27-2.87 8.59-2.26 2.32-4.96 4.96-4.58 8.18.351 2.97 3.24 5.02 4.141 7.87.96 3.05-.54 6.35-2.55 8.84-.891 1.11-1.881 2.13-2.86 3.17-.48-.96-.74-1.99-.62-3.06.24-2.25 2.08-4.2 1.89-6.46-.189-2.44-2.59-4-4.609-5.38-2.021-1.38-4.13-3.6-3.41-5.94.25-.79.8-1.46 1.08-2.23 1.02-2.77-1.5-5.48-3.76-7.36 0 0-1.24-1.42-3.07-.86-1.91.19-2.51 1.97-2.51 1.97-1.36 2.62-2.63 6.09-.63 8.25.569.6 1.329 1.01 1.859 1.64 1.58 1.88.49 4.74-.84 6.8-1.33 2.05-2.94 4.42-2.18 6.75.71 2.15 3.149 3.24 4.239 5.22 1.171 2.11.551 4.79-.569 6.94-1.11 2.14-2.681 4.06-3.51 6.33-.82 2.28-.66 5.18 1.239 6.68 1.32 1.04 3.25 1.24 4.29 2.55.11.14.221.29.311.43h-24.11c-.55-2.05-1.14-3.8-1.71-5.24.5-.24.92-.5 1.24-.79 0 0-4.59-6.87-5.181-7.85-.47-.79-.25-4.4.131-6.5 1.79-4.52 3.609-9.52 4.189-11.43.41-1.34.88-3.59 1.29-5.85.55-2.97 1.01-5.96 1.16-6.92.03-.18.05-.29.05-.31-.29-.86-.979-1.69-2.27-1.69-.29 0-.62.04-.98.15-2.41-1.07-6.22-1.59-7.83-1.93-.109-.03-.22-.06-.33-.08a1.06 1.06 0 0 0-.239-.06c-.011-.01-.02-.01-.03-.01 0 0-1.7-3.19-.49-7.56 0 0 .04-.07.12-.2.39.38.85.67 1.38.83 2.18.67 4.63-1.04 5.48-3.82.85-2.77-.23-5.56-2.421-6.22a3.394 3.394 0 0 0-1.76-.06c-.029-2.75-1.05-5.46-4.21-7.19-8.5-4.66-14.35 4.04-12.79 7.28-.22 2.31.07 5.28 1.26 9.07 1.32 4.19 3.23 5.77 5.23 5.68.05.55.11 1.16.16 1.78.01.19.03.39.04.58-.44.19-.7.36-.79.44a.11.11 0 0 0-.04.02l-1.38.52c-.351.13-.69.24-.99.34-.2.07-.39.13-.55.17-.13.04-.25.07-.351.09-.109.02-.239.09-.399.2-.66-.12-1.3-.41-2.08-.58.11.32.25.64.399.93-.689.18-1.479.55-2.34 1.19 0 0-2.89 2.94-5.189 14-1.12 5.38-3.24 13.12-3.79 14.07-.2.35-.84.89-1.74 1.64l-5.86-22.8h-42.18l-1.25 1.17 7.021 27.3h13.439v7.7h-5.22c-.54 0-1.021.22-1.37.57-.35.35-.56.83-.56 1.37H62.738v4.33h2.851v36.57h-2.851v4.34h2.851v36.569h-1.101c-8.38-1.75-16.04-4.399-22.45-8.399-13.359-8.34-6.409-31.15-15.659-43.39-7.771-10.291-18.341-17.05-23.53-29.941-8.84-21.91 3.76-50.44 25.82-58.22 13.779-4.86 28.38-7.09 42.01-12.43 14.07-5.52 19.5-13.78 30.229-23.57 19.41-17.68 52.441-14.29 76.23-3.96 3.83 1.66 7.42 3.5 10.67 5.47 9.92 5.97 18.15 14.33 27.5 20.94-2.36 2.99-4.65 6.97-2.68 10.16.571.931 1.45 1.651 1.981 2.611zM199.161 166.601h6.877v30.949h-6.877z"></path><path fill="#cce9ff" d="m143.139 107.8-.92.66v.08c-.73.03-1.57.09-2.34.19-1.73.24-5.771 2.47-6.561 3.39h-9.59c1.86-1.12 4.84-2.84 8-4.55 4.309-2.33 7.42-4.64 8.23-5.86.84-1.28 2.859-6.18 4.659-10.87-.09 1.13-.18 2.33.15 3.99.641 3.28-.958 9.61-1.628 12.97zM120.339 108.26c0 .11 0 .22.019.32-.53.03-1.08.08-1.6.15-1.73.24-5.78 2.47-6.57 3.39h-1.21v-7.7h14.7c-2.789 2.02-5.339 3.84-5.339 3.84zM312.089 107.99c-2.88 12.24-13.061 20.56-18.261 31.64-5.55 11.8-4.96 26.5-13.79 36.73-3.88 4.49-9.229 7.46-14.729 9.71-10.11 4.13-20.57 7.07-31.23 9.13l5.771-63.01h4.82v-6.81h-5.62c.309-.18.63-.38.95-.6 4.52-3.08 1.579-7.74 4.3-11.15 1.04-1.31 2.979-1.51 4.29-2.55 1.899-1.5 2.06-4.4 1.239-6.68-.819-2.27-2.39-4.19-3.51-6.33-1.12-2.15-1.74-4.83-.569-6.94 1.09-1.98 3.539-3.07 4.239-5.22.761-2.33-.84-4.7-2.17-6.75-1.34-2.06-2.42-4.92-.85-6.8.53-.63 1.29-1.04 1.859-1.64 2.011-2.16.73-5.63-.63-8.25 0 0-.6-1.78-2.5-1.97-1.83-.56-3.069.86-3.069.86-2.271 1.88-4.79 4.59-3.771 7.36.29.77.84 1.44 1.08 2.23.73 2.34-1.38 4.56-3.41 5.94-2.02 1.38-4.42 2.94-4.609 5.38-.181 2.26 1.649 4.21 1.89 6.46.13 1.17-.18 2.3-.76 3.33-1.05-1.13-2.141-2.23-3.11-3.44-2.01-2.49-3.51-5.79-2.55-8.84.899-2.85 3.79-4.9 4.14-7.87.38-3.22-2.319-5.86-4.58-8.18-2.26-2.32-4.42-5.74-2.859-8.59.52-.96 1.399-1.68 1.97-2.61.729-1.19.88-2.48.65-3.8 8.939 3.57 18.89 4.73 28.34 5.58 21.059 1.89 64.969 20.04 57.039 53.68z"></path><path fill="#0b4870" d="M248.589 111.08c-1.311 1.04-3.25 1.24-4.29 2.55-2.721 3.41.22 8.07-4.3 11.15-.32.22-.641.42-.95.6-3.75 2.22-7.16 2.11-10.32 0-.11-.06-.21-.13-.31-.21-.851-.6-1.681-1.35-2.49-2.23-1.561-1.71-2.98-4.27-2.11-6.54.83-2.16 3.42-3.6 2.641-6.36-.46-1.61-2.171-2.54-2.98-4.01-1.17-2.12-.191-4.85 1.44-6.63 1.64-1.78 3.83-2.94 5.689-4.49.95-.79 1.84-1.76 2.441-2.85.58-1.03.89-2.16.76-3.33-.24-2.25-2.07-4.2-1.89-6.46.189-2.44 2.59-4 4.609-5.38 2.03-1.38 4.141-3.6 3.41-5.94-.24-.79-.79-1.46-1.08-2.23-1.02-2.77 1.5-5.48 3.771-7.36 0 0 1.239-1.42 3.069-.86 1.9.19 2.5 1.97 2.5 1.97 1.36 2.62 2.641 6.09.63 8.25-.569.6-1.329 1.01-1.859 1.64-1.57 1.88-.49 4.74.85 6.8 1.33 2.05 2.931 4.42 2.17 6.75-.7 2.15-3.149 3.24-4.239 5.22-1.171 2.11-.551 4.79.569 6.94 1.12 2.14 2.69 4.06 3.51 6.33.819 2.28.658 5.18-1.241 6.68z"></path><path fill="#0e538c" d="M244.824 65.225a67.6 67.6 0 0 0-2.186 7.653c-.293 1.296-.576 2.587-.646 3.885-.067 1.281.088 2.61.217 3.924.301 2.635.425 5.401-.148 8.086-.283 1.341-.728 2.675-1.474 3.888a8.281 8.281 0 0 1-.622.876c-.216.268-.515.562-.691.771-.419.43-.753.967-1.073 1.5a14.153 14.153 0 0 0-1.616 7.305c.05.614.121 1.23.291 1.804.067.294.173.567.287.833l.187.456c.07.17.143.338.201.507.458 1.367.685 2.784.647 4.208-.059 1.416-.329 2.859-1.016 4.159-.323.656-.793 1.246-1.31 1.77-.287.237-.548.501-.876.68l-.813.51c-.938.643-1.401 1.873-1.515 3.135-.139 1.269.003 2.599.278 3.889v.003a.076.076 0 0 1-.061.094c-.038.01-.073-.011-.088-.047a11.37 11.37 0 0 1-.849-3.972 6.542 6.542 0 0 1 .311-2.099c.213-.702.668-1.35 1.23-1.862l.819-.633c.249-.163.442-.39.66-.589.382-.45.727-.934.956-1.494.504-1.086.693-2.332.684-3.565a10.638 10.638 0 0 0-.609-3.631l-.35-.89a6.38 6.38 0 0 1-.338-1.056c-.188-.71-.255-1.426-.299-2.135a15.516 15.516 0 0 1 2.091-8.017c.379-.594.772-1.188 1.295-1.701.267-.285.452-.451.663-.692.201-.229.387-.474.554-.734.684-1.036 1.136-2.248 1.44-3.496.296-1.254.457-2.55.497-3.853.052-1.3-.04-2.614-.134-3.943-.074-1.331-.186-2.663-.062-4.039.134-1.358.475-2.665.822-3.949a67.44 67.44 0 0 1 2.497-7.595.081.081 0 0 1 .104-.044c.041.016.058.06.045.1z"></path><path fill="#ffbe55" d="M182.349 118.39h19.85v36.57h-19.85z" opacity=".7"></path><path fill="#0b4870" d="M212.629 110.04c-.79 2.76 1.81 4.2 2.63 6.36.87 2.27-.55 4.83-2.11 6.54-.91.99-1.84 1.81-2.8 2.44-.25.18-.51.33-.771.48-2.31 1.28-4.76 1.51-7.38.56v-8.03h3.34c0-.05.011-.09.021-.14.05-.3.12-.6.22-.89.07-.24.16-.48.26-.72v-2.58H195.09c-.09-.14-.2-.29-.311-.43-1.04-1.31-2.97-1.51-4.29-2.55-1.899-1.5-2.059-4.4-1.239-6.68.829-2.27 2.399-4.19 3.51-6.33 1.12-2.15 1.74-4.83.569-6.94-1.09-1.98-3.529-3.07-4.239-5.22-.761-2.33.85-4.7 2.18-6.75 1.33-2.06 2.42-4.92.84-6.8-.53-.63-1.29-1.04-1.859-1.64-2-2.16-.73-5.63.63-8.25 0 0 .6-1.78 2.51-1.97 1.83-.56 3.07.86 3.07.86 2.26 1.88 4.779 4.59 3.76 7.36-.28.77-.83 1.44-1.08 2.23-.72 2.34 1.39 4.56 3.41 5.94 2.02 1.38 4.42 2.94 4.609 5.38.191 2.26-1.649 4.21-1.89 6.46-.12 1.07.14 2.1.62 3.06.6 1.19 1.55 2.26 2.58 3.12 1.859 1.55 4.05 2.71 5.689 4.49 1.641 1.78 2.62 4.51 1.441 6.63-.812 1.47-2.522 2.4-2.971 4.01z"></path><path fill="#0e538c" d="M202.469 96.09c1.08 2.2 1.64 4.61 1.6 7.1-.05.71-.109 1.42-.3 2.13-.05.22-.11.44-.19.65-.04.14-.1.27-.149.41l-.351.89c-.399 1.15-.63 2.39-.609 3.63-.01 1.08.14 2.18.51 3.16h-1.53c-.359-1.01-.529-2.08-.569-3.14-.03-1.42.189-2.84.649-4.21.061-.17.13-.33.2-.5l.19-.46c.119-.27.22-.54.29-.83l.06-.22c.13-.51.19-1.05.23-1.59.1-1.8-.181-3.67-.801-5.41-.22-.66-.5-1.29-.819-1.89-.32-.53-.65-1.07-1.07-1.5-.18-.21-.48-.5-.69-.77a6.74 6.74 0 0 1-.619-.88c-.75-1.21-1.2-2.54-1.48-3.89-.57-2.68-.45-5.45-.15-8.08.131-1.32.29-2.65.221-3.93-.07-1.29-.351-2.59-.65-3.88-.57-2.59-1.31-5.15-2.18-7.66-.021-.04 0-.08.04-.09.04-.02.09 0 .1.04.98 2.48 1.82 5.01 2.5 7.59.351 1.29.69 2.59.82 3.95.13 1.38.01 2.71-.061 4.04-.09 1.33-.18 2.64-.13 3.95.04 1.3.2 2.59.49 3.85.31 1.25.76 2.46 1.44 3.49.17.26.359.51.56.74.21.24.39.41.66.69.52.51.92 1.11 1.3 1.7.168.3.338.61.488.92z"></path><path fill="#f2f2f2" d="M207.129 121.14a11.74 11.74 0 0 1-.23 1.96c-.14.69-.35 1.37-.62 2.01-.01.04-.05.06-.09.05-.04-.01-.07-.05-.06-.09v-.01c.189-.88.31-1.78.319-2.66.02-.41 0-.82-.04-1.22-.08-.95-.359-1.87-.89-2.55-.07-.08-.14-.16-.22-.24h.239c0-.05.011-.09.021-.14.05-.3.12-.6.22-.89.09.09.181.19.26.29.36.41.631.89.78 1.39.22.7.331 1.41.311 2.1z"></path><path fill="#2a94f4" d="M236.729 104.26c-.13.22-.29.44-.46.64-.25.3-.54.57-.85.82-1.41 1.18-3.221 1.97-4.051 3.6-2.63 5.12 2.381 10.39-2.67 15.57-.09.1-.189.19-.279.28-.07.07-.141.15-.221.21-5.739 5.56-11.79 5.46-18.21.78-.14-.1-.27-.2-.41-.3-.189-.16-.39-.32-.579-.48-.77-.67-1.5-1.44-2.101-2.28-.16-.23-.31-.46-.45-.7-.68-1.17-1.069-2.45-.93-3.77 0-.08.01-.16.02-.24 0-.05.011-.09.021-.14.05-.3.12-.6.22-.89.07-.24.16-.48.26-.72.95-2.36 2.691-4.56 1.28-7.32-.78-1.51-2.38-2.3-3.74-3.35-.42-.32-.819-.67-1.159-1.07a1.41 1.41 0 0 1-.15-.2c-1.51-1.93-1.46-4.64-.57-7 .21-.56.471-1.1.77-1.61.02-.06.06-.12.09-.17.92-1.52 2.11-2.83 3.33-4.13.979-1.04 1.97-2.06 2.86-3.17 2.01-2.49 3.51-5.79 2.55-8.84-.9-2.85-3.79-4.9-4.141-7.87-.38-3.22 2.32-5.86 4.58-8.18 2.261-2.32 4.41-5.74 2.87-8.59-.53-.96-1.41-1.68-1.979-2.61-1.971-3.19.319-7.17 2.68-10.16.09-.12.19-.24.28-.35 0 0 1.239-2.16 3.76-1.91 2.51-.25 3.75 1.91 3.75 1.91 1.57 1.94 3.189 4.36 3.61 6.71.23 1.32.079 2.61-.65 3.8-.57.93-1.45 1.65-1.97 2.61-1.561 2.85.6 6.27 2.859 8.59 2.261 2.32 4.96 4.96 4.58 8.18-.35 2.97-3.24 5.02-4.14 7.87-.96 3.05.54 6.35 2.55 8.84.97 1.21 2.061 2.31 3.11 3.44 1.14 1.21 2.229 2.45 3.09 3.86.11.18.21.36.31.55.301.57.551 1.17.74 1.8.63 2.04.62 4.26-.46 5.99z"></path><path fill="#0e538c" d="M202.199 125.38h42.471v6.81h-42.471z"></path><path fill="#0e538c" d="m239.849 132.19-5.771 63.01-.219 2.35h-27.821v-1.68h-1.359l-2.48-27.02v-9.55h3.839v-4.34h-3.839v-22.77zM217.747 124.058c-.989-1.484 0 0-.422-1.788a8.578 8.578 0 0 1-.142-2.801c.09-.964.51-1.925 1.109-2.734l.896-1.035c.281-.273.472-.621.697-.935.381-.681.701-1.4.852-2.182.371-1.541.291-3.207-.039-4.801-.3-1.607-.918-3.164-1.74-4.545l-.684-1.063a8.489 8.489 0 0 1-.712-1.28c-.43-.872-.7-1.782-.943-2.69a20.544 20.544 0 0 1 .622-10.932c.338-.868.689-1.739 1.234-2.539.274-.439.467-.704.677-1.071.201-.35.379-.716.53-1.096.618-1.521.886-3.209.954-4.907a26.112 26.112 0 0 0-.355-5.122c-.276-1.697-.741-3.376-1.205-5.073-.44-1.707-.931-3.406-1.131-5.219-.183-1.797-.078-3.578.034-5.331.208-3.52.636-7.028 1.262-10.491a.102.102 0 0 1 .121-.085.106.106 0 0 1 .084.117 88.38 88.38 0 0 0-.84 10.486c-.043 1.754-.071 3.505.17 5.203.25 1.677.801 3.359 1.308 5.029 1.075 3.337 1.958 6.889 1.913 10.517-.021 1.813-.246 3.658-.898 5.426-.16.441-.354.872-.576 1.294-.211.405-.522.862-.698 1.179-.432.668-.718 1.452-.999 2.223-.951 3.177-1.016 6.715-.192 9.888.229.784.478 1.563.847 2.262.165.363.371.692.587 1.009l.365.54c.137.199.272.397.392.604.948 1.652 1.615 3.428 1.934 5.284.295 1.853.32 3.791-.232 5.654-.246.935-.701 1.82-1.236 2.632-.309.384-.577.794-.956 1.113l-.923.873c-1.045 1.079-1.323 2.791-1.141 4.455.147 1.683.599-.746 1.29.854l-1.814 1.078z"></path><path fill="#f1b99e" d="m124.899 111.03-3.22.29-1.79.16c-.23-.07-2.53.21-3.8.64-.141.05-.261.1-.37.15-.71.32-2.07.55-2.92.5-.45-.03-.75-.14-.75-.36 0-.03 0-.06.01-.09.02-.06.06-.12.13-.2.79-.92 4.84-3.15 6.57-3.39.52-.07 1.069-.12 1.6-.15 1.391-.09 2.601-.08 2.601-.08l1.939 2.53z"></path><path fill="#f7f7f7" d="M150.269 68.97c0 .01-.02.12-.05.31-.05.37-.15 1.03-.29 1.87a226.58 226.58 0 0 1-.871 5.05c0 .03-.01.05-.01.08-.2 1.1-.42 2.2-.63 3.19-.221 1.01-.44 1.91-.641 2.58-.479 1.54-1.75 5.09-3.16 8.78v.01c-1.8 4.69-3.819 9.59-4.659 10.87-.811 1.22-3.921 3.53-8.23 5.86-3.16 1.71-6.14 3.43-8 4.55-.34.21-.65.39-.91.55 0 0-.2-.21-.49-.55-.199-.22-.42-.49-.649-.8-.59-.8-1.21-1.82-1.32-2.74-.019-.1-.019-.21-.019-.32 0 0 2.55-1.82 5.34-3.84.09-.07.189-.14.28-.21 2.31-1.67 4.739-3.44 5.989-4.41.24-.18.431-.33.57-.45.25-.21.49-.41.71-.6.9-.75 1.54-1.29 1.74-1.64.55-.95 2.67-8.69 3.79-14.07.14-.69.29-1.35.439-1.98.07-.31.15-.62.221-.92.369-1.5.75-2.81 1.119-3.95.171-.53.341-1.01.511-1.47.059-.18.12-.35.189-.51.12-.32.24-.62.351-.91.22-.53.43-1 .63-1.41.13-.26.25-.51.359-.73.16-.29.301-.54.431-.76.14-.24.27-.45.39-.63.05-.08.11-.16.16-.23.04-.06.07-.11.11-.15.029-.04.06-.08.08-.11.05-.07.09-.12.13-.16.01-.02.029-.03.04-.04.02-.03.029-.04.029-.04.86-.64 1.65-1.01 2.34-1.19.421-.11.811-.16 1.16-.16.101 0 .2 0 .29.01 1.651.12 2.531 1.27 2.531 1.27z"></path><path fill="#0b4870" d="M166.959 54.8c-.851 2.78-3.301 4.49-5.48 3.82-.53-.16-.99-.45-1.38-.83a.171.171 0 0 1-.061-.06c-.079-.08-.159-.17-.239-.26v-.01c-.15-.17-.28-.36-.38-.57a2.1 2.1 0 0 1-.221-.42c-.02-.04-.04-.09-.06-.14-.08-.2-.15-.42-.2-.64-.25-1-.23-2.15.12-3.3.15-.49.35-.94.6-1.35.511-.91 1.221-1.63 2.011-2.08.359-.2.729-.35 1.109-.44.58-.13 1.181-.12 1.76.06 2.191.66 3.271 3.45 2.421 6.22z"></path><path fill="#eebea7" d="M170.349 114.06h-27.67c.22-1.01.42-1.95.6-2.78.01-.04.021-.08.021-.12.08-.38.16-.73.229-1.05.141-.67.26-1.22.34-1.61.07-.31.11-.51.131-.6 0-.02.01-.03.01-.04 0-.01.01-.02.02-.03.01-.03.03-.07.05-.1.051-.08.12-.2.21-.35v-.01c.11-.19.25-.42.421-.69 1.779-2.89 6.81-10.1 12.48-10.23 1.95-.05 3.98.73 5.97 2.81 1.021 1.05 2.03 2.44 3 4.22.87 1.55 1.71 3.41 2.53 5.6a72.515 72.515 0 0 1 1.658 4.98z"></path><path fill="#0e538c" d="M170.979 114.06h-28.58c.22-1.01.43-1.94.63-2.76.03-.14.061-.27.101-.4.069-.31.149-.6.22-.87.15-.6.3-1.11.43-1.53.07-.23.15-.43.221-.6 0-.02.01-.03.01-.04 0-.01.01-.02.02-.03.01-.03.03-.07.05-.1.051-.12.12-.24.21-.35v-.01c1.87-2.5 9.87-3.4 15.761-3.72h.01c2.82-.15 5.14-.17 6.1-.17h.46s1.25 1.75 2.65 5.34a49.096 49.096 0 0 1 1.707 5.24z"></path><path fill="#ffbe55" d="M165.328 100.18c.591.98 5.181 7.85 5.181 7.85-.32.29-.74.55-1.24.79-.18.09-.37.18-.58.26-3 1.23-8.18 1.85-13.11 2-2.75.08-5.409.02-7.59-.16-.83-.07-1.59-.16-2.25-.27-.96-.14-1.71-.33-2.21-.54-.06-.02-.12-.05-.18-.08-.32-.16-.49-.34-.481-.54.021-.25.061-.58.141-.98.029-.21.08-.45.13-.71.67-3.36 2.27-9.69 1.63-12.97-.33-1.66-.24-2.86-.15-3.99v-.01c.131-1.55.261-2.97-.739-5.28-1.721-3.97-2.551-7.36-1.721-9.62.38-1.04 1.48-2.9 2.65-4.62.67-.98 1.37-1.91 1.979-2.63.351-.41.671-.75.95-.98.08-.08.16-.15.23-.2.16-.11.29-.18.399-.2.101-.02.221-.05.351-.09.16-.04.35-.1.55-.17.3-.1.64-.21.99-.34l1.38-.52s.01-.01.04-.02c.28-.11.559-.22.8-.32.74-.29 1.27-.51 1.27-.51 1.76-.26 4.1-.22 5.6-.01.15.02.29.05.439.07.271.05.5.1.681.16.01 0 .02 0 .03.01.079.01.159.03.239.06.11.02.221.05.33.08 1.61.34 5.42.86 7.83 1.93.5.23.94.47 1.29.74 2.66 2.07-.29 11.04-.29 11.04s-3.59 11.69-4.13 13.06c-.11.27-.21.69-.31 1.21-.379 2.1-.598 5.71-.129 6.5z"></path><path fill="#eebea7" d="M160.469 65.55c-4.181 7.98-7.851 4.3-7.851 4.3.061-.86-.019-2.44-.14-4.01 0-.04 0-.08-.01-.12-.01-.19-.03-.39-.04-.58-.05-.62-.11-1.23-.16-1.78-.12-1.22-.21-2.11-.21-2.11s4.99-4.26 7.14-4.78c.011 0 .02 0 .03-.01.16-.04.3-.05.42-.03.46.02.65.4.39 1.3 0 .01 0 .03-.01.05-.02.07-.04.14-.05.2v.01c-1.209 4.37.491 7.56.491 7.56z"></path><path fill="#eebea7" d="M161.669 48.96c-.051 2.37-.83 5.06-2.021 7.47-.06.14-.13.27-.189.39-.02.03-.03.05-.04.07-.45.86-.95 1.67-1.48 2.41-.09.12-.18.24-.27.35-1.19 1.59-2.561 2.82-3.94 3.37-.05.02-.11.05-.16.07-.109.05-.22.08-.319.11-.32.09-.65.15-.961.16h-.02c-2 .09-3.91-1.49-5.23-5.68-1.189-3.79-1.479-6.76-1.26-9.07.601-6.33 5.03-7.72 5.03-7.72s9.59-2.17 10.77 6.49c.07.5.1 1.03.09 1.58z"></path><path fill="#0b4870" d="M162.779 48.52c.05 4.13-2.149 8.32-2.68 9.27-.08.13-.12.2-.12.2v-.01c-.03-.15-.09-.32-.18-.51v-.01c-.09-.2-.21-.42-.34-.64-.08-.12-.15-.24-.23-.36-.03-.05-.06-.09-.09-.13-.11-.16-.22-.33-.33-.49-.68-.97-1.44-1.88-1.62-2.1a.173.173 0 0 1-.05-.05c-6.84-.5-10.94-4.51-10.94-4.51-.18-.16-.31-.36-.42-.57-1.56-3.24 4.29-11.94 12.79-7.28 3.16 1.73 4.18 4.44 4.21 7.19z"></path><path fill="#eebea7" d="M157.191 53.61c.056-1.032.692-3.386 2.227-2.729 1.538.66-.093 5.453-1.115 5.158-.001.001-1.235.019-1.112-2.429z"></path><path fill="#a77860" d="M157.939 59.3c-.01.05-.2.92-.98 2.08-.78 1.16-2.15 2.59-4.53 3.76-.05-.62-.11-1.23-.16-1.78h.02c.08.01.421.02.961-.16.1-.03.21-.06.319-.11.05-.02.11-.05.16-.07.94-.42 2.3-1.35 3.94-3.37.09-.11.18-.23.27-.35z"></path><path fill="#f7f7f7" d="m161.069 65.7-9.01 11.41-.42-10.93s.01-.01.04-.02c.09-.08.35-.25.79-.44 1.1-.47 3.319-1.06 6.88-.4.15.02.29.05.439.07.221.05.45.1.681.16.01 0 .02 0 .03.01.079.01.159.03.239.06.111.02.221.05.331.08z"></path><path fill="#ffbe55" d="M206.038 114.06v2.58c-.1.24-.189.48-.26.72-.1.29-.17.59-.22.89-.01.05-.021.09-.021.14h-23.189v-4.33h23.69z" opacity=".9"></path><path fill="#0e538c" d="M206.038 116.64v1.75h-.5c0-.05.011-.09.021-.14.05-.3.12-.6.22-.89.07-.24.16-.48.259-.72z"></path><path fill="#ffbe55" d="M62.738 114.06h119.61v4.33H62.738z"></path><path fill="#f2f2f2" d="m134.389 103.25-1.25 1.17-7.18-.21-14.98-.42-1.68-.05-.24-.01-4.66-.13-12.18-.35-8.28-26.13 1.25-1.17h42.179l5.861 22.8z"></path><path fill="#d3d3d3" d="M133.139 104.42h-42.18l-3.73-14.5-3.29-12.8h42.17l5.84 22.68z"></path><path fill="#f2f2f2" d="M109.059 97.33h1.92v14.79h-1.92z"></path><path fill="#f7f7f7" d="M118.129 114.06h-6.08v-1.94h4.149c1.071 0 1.931.87 1.931 1.94zM104.399 97.33h4.9v14.79h-4.9z"></path><path fill="#d3d3d3" d="M112.799 112.12v1.94h-15.55a1.926 1.926 0 0 1 1.93-1.94h13.62z"></path><path fill="#ffbe55" d="M65.589 118.39v36.57h116.76v-36.57H65.589zm100.72 25.58h-88.19v-15.28h88.19v15.28z" opacity=".5"></path><path fill="#ffbe55" d="M182.349 154.96h23.689v4.34h-23.689z" opacity=".9"></path><path fill="#ffbe55" d="M62.738 154.96h119.61v4.34H62.738z"></path><path fill="#ffbe55" d="M65.589 159.3h116.76v36.569H65.589z" opacity=".5"></path><path fill="#ffbe55" d="M182.349 195.87h23.689v4.341h-23.689z" opacity=".9"></path><path fill="#ffbe55" d="M182.349 159.3h19.85v36.569h-19.85z" opacity=".7"></path><path fill="#ffbe55" d="M62.738 195.87h119.61v4.341H62.738z"></path><path fill="#f1b99e" d="m146.029 111.03-2.649.24-.101.01-.25.02-2.02.18c-.23-.07-2.53.21-3.8.64-.141.05-.261.1-.37.15-1.12.51-3.9.8-3.65.05.02-.06.061-.12.13-.2.79-.92 4.83-3.15 6.561-3.39.77-.1 1.609-.16 2.34-.19l.79-.03c.319-.01.58-.01.77-.01h.3l1.66 2.15.289.38z"></path><path fill="#f7f7f7" d="M172.149 69.17c0 .02-.02.13-.05.31-.15.96-.61 3.95-1.16 6.92-.41 2.26-.88 4.51-1.29 5.85-.58 1.91-2.399 6.91-4.189 11.43-.811 2.08-1.62 4.05-2.301 5.58-.559 1.25-1.02 2.19-1.33 2.66-.29.45-.899 1.05-1.77 1.73h-.01c-.16.13-.32.26-.5.39-1.471 1.12-3.511 2.42-5.941 3.73-2.03 1.1-3.99 2.2-5.62 3.15-.76.44-1.45.84-2.04 1.2-.489.29-.91.54-1.26.76 0 0-.29-.3-.66-.76-.21-.24-.43-.53-.649-.85-.03-.03-.051-.07-.08-.11-.061-.08-.12-.17-.17-.26-.48-.75-.9-1.61-.91-2.36v-.08l.92-.66c.42-.3.96-.68 1.57-1.12 3.18-2.28 8.42-6.07 9.689-7.13 1.271-1.07 2.2-1.81 2.45-2.24.08-.14.2-.44.34-.86.58-1.67 1.58-5.29 2.46-8.89.36-1.49.71-2.98.99-4.32 2.3-11.06 5.189-14 5.189-14 1.23-.89 2.24-1.4 3.07-1.61.36-.11.69-.15.98-.15 1.292 0 1.982.83 2.272 1.69z"></path><path fill="#0e538c" fill-rule="evenodd" d="m152.069 77.26-1.49-5.97c-.21-.02-.43-.07-.649-.14-1.07-.35-2.26-1.22-3.141-2.47a7.17 7.17 0 0 1-.899-1.76c.78.17 1.42.46 2.08.58.97.19 2.01.04 3.67-1.32l.42 10.93v.01l.009.14z" clip-rule="evenodd"></path><path fill="#0e538c" fill-rule="evenodd" d="m152.059 77.118 9.014-11.416c.802 4.396 2.641 2.364 4.617 3.335-2.493 1.972-6.574 3.972-8.131 2.961l-5.5 5.12z" clip-rule="evenodd"></path><path fill="#f7f7f7" d="M144.361 74.155h3.24v6.821h-3.24z" transform="rotate(-83.529 145.985 77.568)"></path><path fill="#ffbe55" d="M78.118 128.69h88.19v15.28h-88.19z"></path><path fill="#f7f7f7" d="M116.199 112.12h36.07v1.94h-36.07z"></path></svg>